Normalized EMG Linear Envelopes
nRows=59
nColumns=17

endheader
time	        VM	        VL	        RF	       GRA	        TA	   ADDLONG	   SEMIMEM	      BFLH	        GM	        GL	       TFL	   GLUTMAX	   GLUTMED	      PIRI	    OBTINT	        QF	
1.989	  0.552587	  0.313072	  0.037817	  0.270543	  0.497156	  0.064471	  0.508370	  0.461751	  0.443630	  0.186943	  0.024215	  0.363249	  0.243022	  0.306560	  0.474879	  0.762685	
1.9895	  0.557509	  0.316737	  0.038174	  0.269091	  0.493770	  0.064213	  0.505004	  0.460699	  0.441918	  0.187780	  0.024625	  0.367180	  0.243843	  0.308542	  0.480200	  0.768619	
1.99	  0.562384	  0.320428	  0.038532	  0.267650	  0.490292	  0.063958	  0.501640	  0.459639	  0.440213	  0.188632	  0.025038	  0.371095	  0.244692	  0.310540	  0.485586	  0.774548	
1.9905	  0.567207	  0.324146	  0.038890	  0.266219	  0.486725	  0.063709	  0.498281	  0.458572	  0.438518	  0.189501	  0.025455	  0.374990	  0.245568	  0.312552	  0.491034	  0.780468	
1.991	  0.571976	  0.327890	  0.039249	  0.264800	  0.483073	  0.063464	  0.494928	  0.457498	  0.436833	  0.190386	  0.025876	  0.378865	  0.246470	  0.314579	  0.496546	  0.786377	
1.9915	  0.576689	  0.331661	  0.039607	  0.263392	  0.479341	  0.063224	  0.491584	  0.456420	  0.435159	  0.191288	  0.026300	  0.382716	  0.247397	  0.316621	  0.502122	  0.792271	
1.992	  0.581344	  0.335459	  0.039966	  0.261996	  0.475532	  0.062989	  0.488252	  0.455337	  0.433498	  0.192207	  0.026728	  0.386540	  0.248348	  0.318677	  0.507761	  0.798147	
1.9925	  0.585936	  0.339283	  0.040325	  0.260613	  0.471650	  0.062759	  0.484933	  0.454250	  0.431852	  0.193144	  0.027159	  0.390337	  0.249323	  0.320747	  0.513464	  0.804001	
1.993	  0.590463	  0.343133	  0.040683	  0.259242	  0.467699	  0.062534	  0.481630	  0.453162	  0.430220	  0.194097	  0.027593	  0.394104	  0.250320	  0.322831	  0.519229	  0.809829	
1.9935	  0.594923	  0.347010	  0.041041	  0.257885	  0.463682	  0.062314	  0.478345	  0.452072	  0.428605	  0.195069	  0.028031	  0.397838	  0.251338	  0.324927	  0.525058	  0.815628	
1.994	  0.599312	  0.350912	  0.041399	  0.256542	  0.459605	  0.062099	  0.475080	  0.450983	  0.427007	  0.196058	  0.028471	  0.401537	  0.252377	  0.327037	  0.530950	  0.821395	
1.9945	  0.603630	  0.354839	  0.041756	  0.255213	  0.455470	  0.061889	  0.471838	  0.449896	  0.425426	  0.197066	  0.028915	  0.405201	  0.253435	  0.329158	  0.536904	  0.827124	
1.995	  0.607873	  0.358791	  0.042113	  0.253899	  0.451282	  0.061684	  0.468620	  0.448810	  0.423865	  0.198091	  0.029361	  0.408826	  0.254512	  0.331290	  0.542922	  0.832813	
1.9955	  0.612040	  0.362769	  0.042469	  0.252600	  0.447044	  0.061484	  0.465430	  0.447729	  0.422322	  0.199135	  0.029810	  0.412411	  0.255606	  0.333433	  0.549003	  0.838457	
1.996	  0.616129	  0.366771	  0.042824	  0.251318	  0.442761	  0.061289	  0.462268	  0.446653	  0.420799	  0.200198	  0.030262	  0.415955	  0.256717	  0.335586	  0.555146	  0.844054	
1.9965	  0.620137	  0.370798	  0.043179	  0.250052	  0.438436	  0.061099	  0.459138	  0.445584	  0.419296	  0.201280	  0.030717	  0.419455	  0.257843	  0.337747	  0.561351	  0.849597	
1.997	  0.624064	  0.374849	  0.043532	  0.248803	  0.434073	  0.060915	  0.456040	  0.444523	  0.417813	  0.202381	  0.031174	  0.422910	  0.258984	  0.339917	  0.567617	  0.855085	
1.9975	  0.627907	  0.378923	  0.043885	  0.247572	  0.429676	  0.060735	  0.452977	  0.443471	  0.416351	  0.203500	  0.031633	  0.426318	  0.260138	  0.342094	  0.573945	  0.860512	
1.998	  0.631663	  0.383020	  0.044237	  0.246360	  0.425247	  0.060561	  0.449951	  0.442430	  0.414909	  0.204639	  0.032095	  0.429676	  0.261305	  0.344279	  0.580335	  0.865875	
1.9985	  0.635331	  0.387139	  0.044588	  0.245166	  0.420789	  0.060392	  0.446964	  0.441402	  0.413488	  0.205796	  0.032559	  0.432982	  0.262484	  0.346470	  0.586786	  0.871171	
1.999	  0.638910	  0.391280	  0.044938	  0.243991	  0.416307	  0.060227	  0.444017	  0.440387	  0.412087	  0.206972	  0.033024	  0.436233	  0.263673	  0.348666	  0.593298	  0.876395	
1.9995	  0.642397	  0.395442	  0.045287	  0.242836	  0.411802	  0.060068	  0.441113	  0.439387	  0.410706	  0.208167	  0.033492	  0.439429	  0.264872	  0.350869	  0.599872	  0.881545	
2	  0.645791	  0.399624	  0.045635	  0.241701	  0.407278	  0.059915	  0.438252	  0.438403	  0.409346	  0.209381	  0.033962	  0.442565	  0.266080	  0.353076	  0.606507	  0.886617	
2.0005	  0.649090	  0.403826	  0.045982	  0.240585	  0.402738	  0.059766	  0.435437	  0.437435	  0.408006	  0.210612	  0.034433	  0.445641	  0.267296	  0.355288	  0.613204	  0.891607	
2.001	  0.652294	  0.408047	  0.046327	  0.239490	  0.398183	  0.059622	  0.432670	  0.436486	  0.406687	  0.211862	  0.034905	  0.448654	  0.268520	  0.357504	  0.619961	  0.896511	
2.0015	  0.655400	  0.412288	  0.046672	  0.238416	  0.393618	  0.059484	  0.429952	  0.435555	  0.405386	  0.213130	  0.035379	  0.451604	  0.269751	  0.359725	  0.626779	  0.901326	
2.002	  0.658406	  0.416546	  0.047015	  0.237362	  0.389044	  0.059351	  0.427286	  0.434643	  0.404106	  0.214415	  0.035854	  0.454488	  0.270989	  0.361948	  0.633656	  0.906049	
2.0025	  0.661312	  0.420824	  0.047356	  0.236329	  0.384465	  0.059222	  0.424672	  0.433750	  0.402845	  0.215718	  0.036330	  0.457306	  0.272232	  0.364175	  0.640592	  0.910675	
2.003	  0.664114	  0.425119	  0.047697	  0.235317	  0.379882	  0.059100	  0.422112	  0.432879	  0.401604	  0.217038	  0.036807	  0.460056	  0.273480	  0.366405	  0.647587	  0.915202	
2.0035	  0.666810	  0.429431	  0.048036	  0.234327	  0.375299	  0.058982	  0.419608	  0.432028	  0.400382	  0.218375	  0.037285	  0.462737	  0.274732	  0.368637	  0.654638	  0.919629	
2.004	  0.669399	  0.433761	  0.048374	  0.233359	  0.370718	  0.058870	  0.417161	  0.431199	  0.399180	  0.219729	  0.037763	  0.465348	  0.275988	  0.370871	  0.661746	  0.923953	
2.0045	  0.671879	  0.438107	  0.048711	  0.232413	  0.366141	  0.058764	  0.414772	  0.430391	  0.397997	  0.221099	  0.038241	  0.467888	  0.277245	  0.373107	  0.668909	  0.928172	
2.005	  0.674247	  0.442468	  0.049046	  0.231490	  0.361570	  0.058663	  0.412444	  0.429607	  0.396834	  0.222486	  0.038720	  0.470355	  0.278505	  0.375343	  0.676125	  0.932284	
2.0055	  0.676502	  0.446844	  0.049381	  0.230590	  0.357009	  0.058569	  0.410176	  0.428844	  0.395692	  0.223889	  0.039199	  0.472749	  0.279765	  0.377578	  0.683393	  0.936289	
2.006	  0.678645	  0.451234	  0.049715	  0.229715	  0.352459	  0.058482	  0.407971	  0.428104	  0.394570	  0.225307	  0.039677	  0.475067	  0.281024	  0.379813	  0.690713	  0.940184	
2.0065	  0.680674	  0.455637	  0.050048	  0.228864	  0.347923	  0.058401	  0.405829	  0.427387	  0.393470	  0.226740	  0.040156	  0.477308	  0.282282	  0.382046	  0.698081	  0.943970	
2.007	  0.682589	  0.460050	  0.050380	  0.228039	  0.343401	  0.058326	  0.403751	  0.426693	  0.392391	  0.228189	  0.040634	  0.479472	  0.283538	  0.384276	  0.705498	  0.947644	
2.0075	  0.684391	  0.464474	  0.050712	  0.227239	  0.338898	  0.058259	  0.401738	  0.426021	  0.391335	  0.229653	  0.041111	  0.481556	  0.284792	  0.386503	  0.712963	  0.951207	
2.008	  0.686080	  0.468906	  0.051043	  0.226467	  0.334413	  0.058200	  0.399790	  0.425371	  0.390302	  0.231131	  0.041588	  0.483559	  0.286042	  0.388725	  0.720473	  0.954657	
2.0085	  0.687656	  0.473346	  0.051374	  0.225721	  0.329950	  0.058148	  0.397909	  0.424743	  0.389293	  0.232624	  0.042064	  0.485481	  0.287289	  0.390941	  0.728029	  0.957996	
2.009	  0.689119	  0.477790	  0.051704	  0.225003	  0.325510	  0.058103	  0.396094	  0.424136	  0.388308	  0.234131	  0.042539	  0.487321	  0.288532	  0.393150	  0.735628	  0.961223	
2.0095	  0.690471	  0.482239	  0.052034	  0.224313	  0.321094	  0.058067	  0.394347	  0.423550	  0.387349	  0.235652	  0.043013	  0.489076	  0.289772	  0.395352	  0.743269	  0.964340	
2.01	  0.691712	  0.486689	  0.052363	  0.223651	  0.316704	  0.058038	  0.392667	  0.422984	  0.386416	  0.237188	  0.043486	  0.490747	  0.291008	  0.397545	  0.750952	  0.967346	
2.0105	  0.692845	  0.491139	  0.052693	  0.223017	  0.312341	  0.058018	  0.391055	  0.422438	  0.385509	  0.238737	  0.043957	  0.492333	  0.292240	  0.399728	  0.758675	  0.970244	
2.011	  0.693870	  0.495587	  0.053022	  0.222413	  0.308008	  0.058006	  0.389512	  0.421910	  0.384630	  0.240299	  0.044427	  0.493832	  0.293469	  0.401901	  0.766436	  0.973034	
2.0115	  0.694790	  0.500031	  0.053352	  0.221837	  0.303704	  0.058003	  0.388038	  0.421401	  0.383778	  0.241874	  0.044896	  0.495244	  0.294694	  0.404061	  0.774234	  0.975717	
2.012	  0.695606	  0.504469	  0.053681	  0.221292	  0.299433	  0.058008	  0.386632	  0.420909	  0.382953	  0.243463	  0.045363	  0.496567	  0.295914	  0.406208	  0.782067	  0.978294	
2.0125	  0.696322	  0.508898	  0.054011	  0.220776	  0.295194	  0.058023	  0.385296	  0.420434	  0.382157	  0.245063	  0.045828	  0.497799	  0.297131	  0.408341	  0.789933	  0.980767	
2.013	  0.696937	  0.513315	  0.054340	  0.220289	  0.290989	  0.058046	  0.384028	  0.419974	  0.381389	  0.246676	  0.046291	  0.498941	  0.298342	  0.410460	  0.797831	  0.983136	
2.0135	  0.697455	  0.517720	  0.054670	  0.219833	  0.286819	  0.058078	  0.382830	  0.419529	  0.380650	  0.248301	  0.046752	  0.499990	  0.299550	  0.412563	  0.805760	  0.985403	
2.014	  0.697876	  0.522108	  0.055001	  0.219407	  0.282686	  0.058119	  0.381701	  0.419098	  0.379939	  0.249936	  0.047211	  0.500946	  0.300753	  0.414650	  0.813716	  0.987568	
2.0145	  0.698202	  0.526479	  0.055331	  0.219011	  0.278590	  0.058169	  0.380641	  0.418679	  0.379257	  0.251582	  0.047668	  0.501808	  0.301950	  0.416720	  0.821699	  0.989632	
2.015	  0.698434	  0.530830	  0.055662	  0.218646	  0.274532	  0.058228	  0.379650	  0.418271	  0.378603	  0.253239	  0.048123	  0.502574	  0.303143	  0.418771	  0.829706	  0.991597	
2.0155	  0.698574	  0.535158	  0.055994	  0.218310	  0.270512	  0.058297	  0.378726	  0.417873	  0.377977	  0.254905	  0.048575	  0.503244	  0.304330	  0.420804	  0.837735	  0.993463	
2.016	  0.698621	  0.539462	  0.056326	  0.218005	  0.266533	  0.058375	  0.377871	  0.417484	  0.377379	  0.256579	  0.049024	  0.503818	  0.305513	  0.422816	  0.845785	  0.995234	
2.0165	  0.698578	  0.543739	  0.056659	  0.217729	  0.262594	  0.058463	  0.377082	  0.417103	  0.376808	  0.258263	  0.049471	  0.504295	  0.306689	  0.424808	  0.853851	  0.996909	
2.017	  0.698445	  0.547989	  0.056992	  0.217483	  0.258695	  0.058560	  0.376359	  0.416727	  0.376265	  0.259954	  0.049916	  0.504673	  0.307860	  0.426778	  0.861933	  0.998492	
2.0175	  0.698224	  0.552208	  0.057326	  0.217266	  0.254839	  0.058667	  0.375702	  0.416357	  0.375748	  0.261653	  0.050357	  0.504953	  0.309025	  0.428725	  0.870026	  0.999985	
2.018	  0.697915	  0.556395	  0.057661	  0.217079	  0.251024	  0.058784	  0.375109	  0.415991	  0.375257	  0.263358	  0.050796	  0.505133	  0.310183	  0.430649	  0.878129	  1.001389	
